<?xml version="1.0" encoding="UTF-8"?>
<svg viewBox="0 0 100 100" width="256" height="256" role="img" aria-label="Collaboration: Not permitted" xmlns="http://www.w3.org/2000/svg"><rect x="6" y="6" width="88" height="88" rx="18" fill="#14213D"/><g transform="translate(50,52) scale(2.0) translate(-12,-12)"><circle cx="8.4" cy="8" r="3" fill="none" stroke="#fff" stroke-width="2"/>
          <circle cx="15.6" cy="8" r="3" fill="none" stroke="#fff" stroke-width="2"/>
          <path d="M3.4 19c0-3 2.3-5 5-5 1.4 0 2.7.5 3.6 1.4" fill="none" stroke="#fff" stroke-width="2" stroke-linecap="round"/>
          <path d="M12 15.4c.9-.9 2.2-1.4 3.6-1.4 2.7 0 5 2 5 5" fill="none" stroke="#fff" stroke-width="2" stroke-linecap="round"/></g><rect x="6" y="6" width="88" height="88" rx="18" fill="none" stroke="#CE1126" stroke-width="5"/><circle cx="80" cy="20" r="15" fill="#CE1126" stroke="#fff" stroke-width="3"/><path d="M74 14l12 12M86 14l-12 12" stroke="#fff" stroke-width="4" stroke-linecap="round"/></svg>