<?xml version="1.0" encoding="UTF-8"?>
<svg viewBox="0 0 100 100" width="256" height="256" role="img" aria-label="Citation &amp; Sources: Conditions apply" xmlns="http://www.w3.org/2000/svg"><rect x="6" y="6" width="88" height="88" rx="18" fill="#14213D"/><g transform="translate(50,52) scale(2.0) translate(-12,-12)"><path d="M5.5 8h4.2v5c0 2.1-1.6 3.7-4.2 4.2v-2.1c1.3-.4 2.1-1.2 2.1-2.2H5.5z" fill="#fff"/>
        <path d="M14.3 8h4.2v5c0 2.1-1.6 3.7-4.2 4.2v-2.1c1.3-.4 2.1-1.2 2.1-2.2h-2.1z" fill="#fff"/></g><rect x="6" y="6" width="88" height="88" rx="18" fill="none" stroke="#C8852A" stroke-width="5"/><circle cx="80" cy="20" r="15" fill="#C8852A" stroke="#fff" stroke-width="3"/><path d="M80 11.5v9" stroke="#fff" stroke-width="4" stroke-linecap="round"/><circle cx="80" cy="27" r="2.3" fill="#fff"/></svg>