<?xml version="1.0" encoding="UTF-8"?>
<svg viewBox="0 0 100 100" width="256" height="256" role="img" aria-label="Devices &amp; Calculators: Permitted" xmlns="http://www.w3.org/2000/svg"><rect x="6" y="6" width="88" height="88" rx="18" fill="#14213D"/><g transform="translate(50,52) scale(2.0) translate(-12,-12)"><rect x="6" y="3" width="12" height="18" rx="2" fill="none" stroke="#fff" stroke-width="2"/>
          <rect x="8.4" y="5.4" width="7.2" height="3.4" rx="0.6" fill="none" stroke="#fff" stroke-width="1.4"/>
          <circle cx="9" cy="12.4" r="0.95" fill="#fff"/><circle cx="12" cy="12.4" r="0.95" fill="#fff"/><circle cx="15" cy="12.4" r="0.95" fill="#fff"/>
          <circle cx="9" cy="15.6" r="0.95" fill="#fff"/><circle cx="12" cy="15.6" r="0.95" fill="#fff"/><circle cx="15" cy="15.6" r="0.95" fill="#fff"/>
          <circle cx="9" cy="18.8" r="0.95" fill="#fff"/><circle cx="12" cy="18.8" r="0.95" fill="#fff"/><circle cx="15" cy="18.8" r="0.95" fill="#fff"/></g><rect x="6" y="6" width="88" height="88" rx="18" fill="none" stroke="#1E7A46" stroke-width="5"/><circle cx="80" cy="20" r="15" fill="#1E7A46" stroke="#fff" stroke-width="3"/><path d="M72 20l5 5 9-11" fill="none" stroke="#fff" stroke-width="4" stroke-linecap="round" stroke-linejoin="round"/></svg>