<?xml version="1.0" encoding="UTF-8"?>
<svg viewBox="0 0 100 100" width="256" height="256" role="img" aria-label="Open-Book Research: Not permitted" xmlns="http://www.w3.org/2000/svg"><rect x="6" y="6" width="88" height="88" rx="18" fill="#14213D"/><g transform="translate(50,52) scale(2.0) translate(-12,-12)"><path d="M12 6.2C10 4.7 6.8 4.2 4 4.7V18c2.8-.5 6 0 8 1.5 2-1.5 5.2-2 8-1.5V4.7C17.2 4.2 14 4.7 12 6.2z" fill="none" stroke="#fff" stroke-width="2" stroke-linejoin="round"/>
            <line x1="12" y1="6.2" x2="12" y2="19.5" stroke="#fff" stroke-width="2"/></g><rect x="6" y="6" width="88" height="88" rx="18" fill="none" stroke="#CE1126" stroke-width="5"/><circle cx="80" cy="20" r="15" fill="#CE1126" stroke="#fff" stroke-width="3"/><path d="M74 14l12 12M86 14l-12 12" stroke="#fff" stroke-width="4" stroke-linecap="round"/></svg>